<?xml version="1.0" encoding="UTF-8"?>
<svg id="Layer_1" data-name="Layer 1" xmlns="http://www.w3.org/2000/svg" viewBox="0 0 492.65 328.95">
  <defs>
    <style>
      .cls-1 {
        fill: #6d6d6d;
      }

      .cls-2 {
        fill: #f74c01;
      }

      .cls-3 {
        fill: #bcbec0;
      }

      .cls-4 {
        fill: #c49a6c;
      }

      .cls-5 {
        fill: #231f20;
      }

      .cls-5, .cls-6 {
        stroke: #231f20;
        stroke-miterlimit: 10;
      }

      .cls-7 {
        stroke: #bcbec0;
      }

      .cls-7, .cls-8, .cls-9 {
        fill: none;
        stroke-linecap: round;
        stroke-linejoin: round;
      }

      .cls-7, .cls-9 {
        stroke-width: 4px;
      }

      .cls-10, .cls-6 {
        fill: #fff;
      }

      .cls-11 {
        fill: #a97c50;
      }

      .cls-8 {
        stroke: #a97c50;
        stroke-width: 9px;
      }

      .cls-9 {
        stroke: #c49a6c;
      }

      .cls-12 {
        fill: #a7310a;
      }
    </style>
  </defs>
  <g id="Layer_1-2" data-name="Layer 1">
    <path class="cls-2" d="M48.45,162.55l2.11-53.7c2.27,1.13,25.16,13,28.69,37.12,1.47,10.02-.46,21.83-5.05,29.1-4.34,6.88-8.38,10.65-8.38,10.65-3.52,3.29-4.9,3.47-5.26,5.26-.21,1.04-.17,3.09,15,15.79,5.22,4.37,7.06,5.67,9.87,6.72,3.63,1.36,5.6,1.07,6.19,2.49,1.1,2.66-3.91,8.25-9.74,10.27-5.03,1.74-9.5.41-10.79,0-3.43-1.08-5.49-2.93-9.48-6.58-3.85-3.53-8.27-7.86-12.64-15,0,0-3.74-6.13-7.63-15.53,0,0-.1-.07-.28-.2,0,0-2.35-1.63-4.72-3.23-4.35-2.93-11.54-7.21-14.78-9.8-8.94-7.14-10.55-19.49-11.02-23.11-.78-5.98-2.03-15.17,3.95-23.43,6.85-9.47,18.14-10.73,20.25-10.92-1.05,3.96-2.08,10.03-1.03,17.24,2.14,14.77,11.5,23.94,14.74,26.85h0Z"/>
    <path class="cls-2" d="M454.01,162.55c-.7-17.9-1.4-35.8-2.11-53.7-2.27,1.13-25.16,13-28.69,37.12-1.47,10.02.46,21.83,5.05,29.1,4.34,6.88,8.38,10.65,8.38,10.65,3.52,3.29,4.9,3.47,5.26,5.26.21,1.04.17,3.09-15,15.79-5.22,4.37-7.06,5.67-9.87,6.72-3.63,1.36-5.6,1.07-6.19,2.49-1.1,2.66,3.91,8.25,9.74,10.27,5.03,1.74,9.5.41,10.79,0,3.43-1.08,5.49-2.93,9.48-6.58,4.66-4.28,7.37-7.92,12.64-15,3.17-4.26,4.1-5.88,4.56-6.95l.23-.58s2.98-7.29,4.89-10.73c4.03-7.24,8.65-6.95,16.12-13.85,3.46-3.2,10.34-9.64,12.64-19.74,2.72-11.98-3.05-21.93-3.95-23.43-5.47-9.11-13.7-12.67-16.32-13.69-.01,5.26-.6,12.21-2.9,20.01-3.77,12.81-10.35,21.78-14.74,26.85h0Z"/>
    <path class="cls-12" d="M417.31,242.33c2.52-5.78,5.38-11.33,8.77-16.58-.79-.73-1.4-1.36-1.85-1.94-.64-.82-.86-1.59-.9-1.69-.47-1.15-5.56-3.01-23.26-6.18,10.46-9.38,11.61-15.35,10.78-19.04-1.09-4.84-6.57-8.74-12.21-13.74-4.1-3.63-8.07-7.36-10.58-12.31-.08-.16-.15-.32-.21-.49-.05-.02-.1-.05-.14-.07-1.89.09-3.74-.73-4.49-2.45-11.3-6.77-20.33-17.23-28.66-27.28-1.93-2.33-3.83-4.69-5.74-7.04-24.36-10.97-53.31-15.04-78.34-20.5-19.42,2.91-38.91,6.19-58.53,5.55-4.99,1.74-10.01,3.35-15.09,4.81-6.41,4.35-12.86,8.65-19.29,12.99.11.95-.16,2-.98,3.07-.26.34-.53.67-.79,1h.01s-.03.02-.05.04c-13.91,18.01-29.85,34.21-47.12,48.99-1.96,1.68-4.41,1.59-6.18.51-3.1,3.13-6.21,6.26-9.31,9.39.09,1.29-.27,2.63-1.26,3.76-6.21,7.06-13.13,14.48-21.17,19.78,2.98,1.22,4.91,5.22,1.93,8.15-3.11,3.05-6.56,5.74-10.21,8.11,5.61,4.09,10.77,8.87,15.33,14.13,7.04-1.74,12.19,2.5,22.95,6.79,7.03,2.8,14.39,4.71,21.52,7.25,55.56,19.78,115.5,17.99,115.58,17.99,21.33,0,51.43-1.33,81.75-9.74,17.57-4.87,33.24-9.21,45.91-15.99,2.4-1.28,9.13-5.03,18.71-6.28,6.05-.79,11.18-.31,14.66.25.61-1.3,1.22-2.61,1.83-3.91-.23-.07-2.89-.94-3.67-3.61-.52-1.78.11-3.29.3-3.72Z"/>
    <path class="cls-12" d="M132.05,303.77c-.51-2.75-1.46-6.88-3.36-11.63-2.78-6.96-5.81-10.77-8.77-15.62-2.8-4.58-6.39-11.48-9.24-21.01,1.11.15,3.37.42,6.23.47,16.39.33,24.09-6.81,41.37-7.5,4.28-.17,7.61-.05,8.98.26,11.9,2.65,17.89,14.55,43.45,21.86,25.43,7.28,48.95,3.92,61.49,2.13,20.88-2.98,42.5-10.13,55.96-7.69,1.47.27,6.75,1.36,12.98-.4,5.27-1.49,8.65-4.29,10.23-5.54,8.37-6.6,25.26-15.94,40.49-14.92,3.8.26,9.91,1.32,17.24,5.81-.43,2.3-1.06,5.13-2.02,8.32-1.22,4.06-2.59,7.39-4,10.49-3.67,8.05-5.68,10.21-8.97,16.57-3.95,7.65-7.88,17.77-6.74,18.41,1.18.65,6.31-9.58,20.05-26.93,1.94-2.45,5.45-7.64,12.45-18.02,3.51-5.19,4.46-6.71,4.48-8.88.1-9.7-18.59-17.08-20.04-17.64-22.91-8.8-46.38,8.17-70.74,18.79-30,13.07-72.07,8.22-156.21-1.47-33.27-3.83-75.48-25.28-84-13.63-5.22,7.14-3.69,13.49-3.69,13.49,1.33,2.07,3.36,5.12,6.05,8.74.44.6.39.51,3.12,4.1,4.94,6.47,5.59,7.38,7.3,9.51s3.05,3.79,4.27,5.27c5.29,6.44,8.18,9.86,10.68,12.88,2.65,3.21,6.44,7.87,10.96,13.78Z"/>
    <path class="cls-2" d="M94.88,246.28c7.07-1.77,12.21,2.48,23,6.78,7.03,2.8,14.39,4.71,21.52,7.25,55.56,19.78,115.5,17.99,115.58,17.99,40.83,0,72.27-7.38,81.75-9.74,17.86-4.45,26.8-6.68,36.88-11.43,11.3-5.32,16.94-9.92,27.74-10.84,4.76-.41,20.35-1.78,25.16,6.1,5.79,9.48-8.54,24.08-21.35,64.8-1.14,3.63-3.42,10.92-2.29,11.44.8.36,3-2.84,7.87-10.14,6.71-10.06,10.07-15.08,11.25-16.98,2.37-3.82,10.99-15.92,28.23-40.12,3.82-5.37,8.08-11.32,6.16-16.77-.56-1.58-1.47-2.67-6.79-6.58-9.68-7.12-15.31-9.9-22.92-16.34-3.78-3.2-5.67-4.83-6.16-6.58-2.47-9,13.31-17.28,11.04-23.35-2.32-6.21-20.18-1.05-24.41-8.7-4.1-7.41,8.96-18.87,4.91-24.62-3.89-5.53-17.97,2.26-23.38-3.82-6.03-6.78,5.72-22.93.41-27.65-4.92-4.38-17.53,7.32-24.4,2.61-7.44-5.1.32-23.65-6.22-27.27-5.98-3.31-16.05,10.21-22.64,6.9-7.3-3.67-1.32-23.44-7.85-26.32-6.38-2.81-16.02,14.31-24.41,11.67-8.3-2.6-6.66-21.8-13.16-22.92-6.68-1.15-12.07,18.51-20.39,17.92-8.46-.6-11.18-21.53-17.86-21.26-6.37.25-7.56,19.42-15.31,20.41-7.76.99-13.35-17.34-20.41-16.16-7.14,1.19-6,20.7-14.46,22.96-8.37,2.24-17.45-14.75-23.21-12.2-5.75,2.55.48,20.74-6.56,24.95-7,4.19-19.48-10.03-25.52-5.95-6.07,4.09,2.71,21.02-4.01,26.42-6.66,5.36-21.15-6.57-26.11-1.7-5.23,5.14,7.68,21.56,2.05,28.01-5.51,6.31-22.91-3.65-26.88,1.92-3.96,5.56,11.11,18.63,6.79,26.32-3.88,6.92-19.11,1.77-22.44,8.34-3.23,6.36,11.05,13.32,9.36,23.82-1.16,7.2-8.58,8.64-27.15,28.03-4.02,4.2-5.45,5.99-5.87,8.72-1.13,7.34,6.53,12.68,19.97,24.92,14.27,12.99,28.62,26.05,41.86,42.08,3.36,4.07,8.36,10.39,9.46,9.7,1.23-.77-3.11-9.78-4.18-11.99-6.87-14.27-12.54-19.69-21.65-33.4-15.3-23-13.31-28.72-12.35-30.65,1.9-3.83,6.13-5.65,9.35-6.58Z"/>
    <path class="cls-5" d="M214.85,199.37c10.46-3.34,21.47,2.67,26.8,10.66,7.21,10.81,5.24,27.02-4.92,34.46-8.71,6.37-19.33,3.29-20.24,3.01-12.71-3.9-16.18-16.88-16.41-17.77-2.84-11.37,2.37-26.4,14.77-30.35h0Z"/>
    <path class="cls-5" d="M303.31,199.37c-10.46-3.34-21.47,2.67-26.8,10.66-7.21,10.81-5.24,27.02,4.92,34.46,8.71,6.37,19.33,3.29,20.24,3.01,12.71-3.9,16.18-16.88,16.41-17.77,2.84-11.37-2.37-26.4-14.77-30.35h0Z"/>
    <ellipse class="cls-6" cx="222.64" cy="211.96" rx="9.12" ry="13.53"/>
    <ellipse class="cls-6" cx="296.89" cy="211.96" rx="9.12" ry="13.53"/>
    <circle class="cls-10" cx="207.98" cy="228.1" r="4.68"/>
    <circle class="cls-10" cx="310.69" cy="228.1" r="4.68"/>
    <ellipse class="cls-2" cx="224.7" cy="248.88" rx="36.57" ry="12.82"/>
    <ellipse class="cls-2" cx="296.89" cy="248.88" rx="36.57" ry="12.82"/>
  </g>
  <g id="Layer_3" data-name="Layer 3">
    <rect class="cls-8" x="67.97" y="30.97" width="58.92" height="16.86" rx="8.43" ry="8.43" transform="translate(17.02 107.06) rotate(-62.1)"/>
    <g>
      <rect class="cls-4" x="16.2" y="85.57" width="96.28" height="22.42" transform="translate(-51.3 108.36) rotate(-62.1)"/>
      <rect class="cls-4" x="-3.26" y="151.65" width="61.43" height="29.61" transform="translate(-132.5 112.83) rotate(-62.1)"/>
      <rect class="cls-3" x="67.39" y="-.04" width="45.26" height="65.81" rx="7.2" ry="7.2" transform="translate(18.85 97.04) rotate(-62.1)"/>
      <path class="cls-4" d="M32.46,188.62l-26.17-13.86c5.09-9.13,8.97-16.67,11.58-21.87,4.96-9.89,7.56-15.85,13.42-23.5,3.04-3.96,5.86-6.97,7.81-8.91,6.91,2.92,13.83,5.84,20.74,8.76-.5,3.21-1.5,8.15-3.66,13.84-4.09,10.79-8.93,15.32-15.11,26.39-2.4,4.3-5.64,10.73-8.61,19.15h0Z"/>
      <rect class="cls-11" x="19.85" y="86.87" width="96.28" height="22.42" transform="translate(-50.5 112.27) rotate(-62.1)"/>
      <rect class="cls-1" x="70.44" y="1.57" width="45.26" height="65.81" rx="7.2" ry="7.2" transform="translate(19.05 100.6) rotate(-62.1)"/>
      <path class="cls-1" d="M107.02,67.35c12.1,2.7,22.2,4.59,29.58,5.87,12.03,2.08,17.02,2.57,18.69.04,1.77-2.68-1.02-7.34-5.25-14-14.15-22.28-21.26-33.45-25.67-33.42-8.63.07-17.59,13.97-21.86,32.61"/>
      <rect class="cls-11" x=".4" y="152.94" width="61.43" height="29.61" transform="translate(-131.7 116.75) rotate(-62.1)"/>
      <path class="cls-11" d="M36.11,189.93l-26.17-13.86c5.09-9.13,8.97-16.67,11.58-21.87,4.96-9.89,7.56-15.85,13.42-23.5,3.04-3.96,5.86-6.97,7.81-8.91,6.91,2.92,13.83,5.84,20.74,8.76-.5,3.21-1.5,8.15-3.66,13.84-4.09,10.79-8.93,15.32-15.11,26.39-2.4,4.3-5.64,10.73-8.61,19.15h0Z"/>
    </g>
    <path class="cls-7" d="M64.53,31.97c3.46-6.11,5.96-11.18,7.6-14.69,2.64-5.63,3.56-8.24,6.15-9.05,2.11-.67,3.99.27,10.46,3.8,3.45,1.88,7.37,4.05,11.68,6.49"/>
    <line class="cls-9" x1="78.87" y1="65.73" x2="59.84" y2="101.06"/>
    <line class="cls-9" x1="27.45" y1="154.55" x2="16.38" y2="176.61"/>
    <path class="cls-9" d="M103.69,11.7c.81-.39,2.45-1.05,4.56-.9,3.56.25,5.76,2.61,6.25,3.17"/>
    <path class="cls-2" d="M48.45,162.55c1.2-4.51,2.87-13.23.66-23.8-2.61-12.47-9.19-20.64-12.39-24.15,2.4-.32,21.3-2.55,33.48,10.55,6.93,7.46,8.34,16.3,9.06,20.81.23,1.42,2.59,17.02-5.05,29.1-4.34,6.88-8.38,10.65-8.38,10.65-3.52,3.29-4.9,3.47-5.26,5.26-.21,1.04-.17,3.09,15,15.79,5.22,4.37,7.06,5.67,9.87,6.72,3.63,1.36,5.6,1.07,6.19,2.49,1.1,2.66-3.91,8.25-9.74,10.27-5.03,1.74-9.5.41-10.79,0-3.43-1.08-5.49-2.93-9.48-6.58-3.85-3.53-8.27-7.86-12.64-15,0,0-3.74-6.13-7.63-15.53-.07-.04-.17-.1-.28-.2-.72-.66-.53-2.05-.25-3.14,1.35-5.38,3.27-8.05,3.27-8.05,1.86-2.6,3.91-7.06,4.37-15.2h0Z"/>
  </g>
</svg>